<svg id="Capa_1" enable-background="new 0 0 512 512" height="80" viewBox="0 0 512 512" width="80" xmlns="http://www.w3.org/2000/svg"><g clip-rule="evenodd" fill-rule="evenodd"><path d="m101.85 101.555c85.135-85.163 223.166-85.163 308.33 0 85.135 85.134 85.135 223.194 0 308.33-85.164 85.134-223.195 85.134-308.33 0-85.164-85.136-85.164-223.196 0-308.33z" fill="#ffd064"/><path d="m239.456 38.328c61.183-4.625 123.928 16.431 170.724 63.227 85.135 85.134 85.135 223.194 0 308.33-46.796 46.767-109.54 67.852-170.724 63.226 50.172-3.802 99.267-24.859 137.634-63.226 85.163-85.135 85.163-223.195 0-308.33-38.367-38.368-87.462-59.452-137.634-63.227z" fill="#ffc250"/><g fill="#cbe2ff"><path d="m93.932 1.862 64.476 37.204c4.37 2.525 6.357 6.215 6.357 11.01v74.465c0 6.3-2.639 8.854-6.357 10.982l-64.476 37.232c-6.953 4.001-8.684 2.298-12.685 0l-64.475-37.232c-4.228-2.441-6.356-5.732-6.356-10.982v-74.464c0-4.512 2.298-8.655 6.356-11.01l64.475-37.205c4.285-2.469 8.371-2.497 12.685 0z"/><path d="m93.932 338.684 64.476 37.232c4.37 2.498 6.357 6.187 6.357 10.982v74.464c0 6.3-2.639 8.854-6.357 10.982l-64.476 37.233c-6.953 4.001-8.684 2.298-12.685 0l-64.475-37.233c-4.228-2.441-6.356-5.732-6.356-10.982v-74.464c0-4.512 2.298-8.655 6.356-10.982l64.475-37.232c4.285-2.47 8.371-2.498 12.685 0z"/><path d="m430.753 1.862 64.503 37.204c4.342 2.525 6.328 6.215 6.328 11.01v74.465c0 6.3-2.639 8.854-6.328 10.982l-64.503 37.232c-6.924 4.001-8.684 2.298-12.685 0l-64.476-37.232c-4.228-2.441-6.357-5.732-6.357-10.982v-74.464c0-4.512 2.327-8.655 6.357-11.01l64.476-37.204c4.285-2.47 8.4-2.498 12.685-.001z"/><path d="m430.753 338.684 64.503 37.232c4.342 2.498 6.328 6.187 6.328 10.982v74.464c0 6.3-2.639 8.854-6.328 10.982l-64.503 37.233c-6.924 4.001-8.684 2.298-12.685 0l-64.476-37.233c-4.228-2.441-6.357-5.732-6.357-10.982v-74.464c0-4.512 2.298-8.655 6.357-10.982l64.476-37.232c4.285-2.47 8.4-2.498 12.685 0z"/></g><path d="m87.603 175.139c-1.504.113-2.696-.34-3.944-.994l-2.27-1.305-.143-.085-64.475-37.232c-4.228-2.441-6.356-5.732-6.356-10.982v-74.464c0-2.27.596-4.455 1.674-6.357l75.514 43.589z" fill="#80b4fb"/><path d="m87.603 511.989c-1.504.085-2.696-.341-3.944-1.022l-2.27-1.305-.143-.085-64.475-37.233c-4.228-2.441-6.356-5.732-6.356-10.982v-74.464c0-2.27.596-4.455 1.674-6.356l75.514 43.589z" fill="#80b4fb"/><path d="m424.425 175.139c-1.504.113-2.667-.34-3.945-.994l-2.27-1.305-.142-.085-64.476-37.232c-4.228-2.441-6.357-5.732-6.357-10.982v-74.464c0-2.27.596-4.455 1.703-6.357l75.486 43.589v87.83z" fill="#80b4fb"/><path d="m424.425 511.989c-1.504.085-2.667-.341-3.945-1.022l-2.27-1.305-.142-.085-64.476-37.233c-4.228-2.441-6.357-5.732-6.357-10.982v-74.464c0-2.27.596-4.455 1.703-6.356l75.486 43.589v87.858z" fill="#80b4fb"/><path d="m163.175 43.663c1.079 1.845 1.589 3.973 1.589 6.414v74.465c0 6.272-2.639 8.826-6.3 10.954l-38.225 22.078-26.307 15.183c-2.781 1.618-4.739 2.298-6.328 2.384v-87.833z" fill="#9dc6fb"/><path d="m163.175 380.484c1.079 1.845 1.589 4.002 1.589 6.414v74.464c0 6.3-2.639 8.826-6.3 10.954l-38.225 22.079-26.307 15.183c-2.781 1.617-4.739 2.298-6.328 2.412v-87.86z" fill="#9dc6fb"/><path d="m500.024 43.663c1.05 1.845 1.561 3.973 1.561 6.414v74.465c0 6.272-2.639 8.826-6.3 10.954l-38.226 22.078-26.306 15.183c-2.782 1.618-4.739 2.298-6.329 2.384v-87.833z" fill="#9dc6fb"/><path d="m500.024 380.484c1.05 1.845 1.561 4.002 1.561 6.414v74.464c0 6.3-2.639 8.826-6.3 10.954l-38.226 22.079-26.306 15.183c-2.782 1.617-4.739 2.298-6.329 2.412v-87.86z" fill="#9dc6fb"/><path d="m256 364.876c60.133 0 109.171-49.038 109.171-109.171s-49.038-109.171-109.171-109.171-109.171 49.038-109.171 109.171c0 60.134 49.038 109.171 109.171 109.171z" fill="#ffedb5"/><path d="m256 146.534c60.304 0 109.171 48.896 109.171 109.171 0 60.304-48.867 109.171-109.171 109.171-5.42 0-10.755-.397-15.977-1.164 52.727-7.719 93.194-53.124 93.194-108.008 0-54.854-40.468-100.26-93.194-107.979 5.222-.765 10.557-1.191 15.977-1.191z" fill="#ffe18c"/><path d="m256 146.534c2.526 0 5.022.113 7.52.284v15.353c0 4.171-3.376 7.52-7.52 7.52s-7.492-3.349-7.492-7.52v-15.353c2.469-.171 4.966-.284 7.492-.284zm71.711 26.875c3.774 3.292 7.322 6.839 10.614 10.613l-10.869 10.869c-2.952 2.923-7.691 2.923-10.614 0-2.951-2.923-2.951-7.691 0-10.613zm37.205 74.804c.17 2.469.255 4.967.255 7.492 0 2.526-.085 5.023-.255 7.521h-15.382c-4.143 0-7.52-3.377-7.52-7.521 0-4.143 3.377-7.492 7.52-7.492zm-26.591 79.204c-3.292 3.774-6.839 7.322-10.614 10.613l-10.869-10.869c-2.951-2.923-2.951-7.69 0-10.613 2.923-2.951 7.662-2.951 10.614 0zm-74.805 37.204c-2.497.17-4.994.255-7.52.255s-5.023-.086-7.492-.255v-15.381c0-4.143 3.348-7.492 7.492-7.492s7.52 3.348 7.52 7.492zm-79.203-26.59c-3.774-3.292-7.35-6.839-10.642-10.613l10.897-10.869c2.923-2.951 7.663-2.951 10.614 0 2.923 2.923 2.923 7.69 0 10.613zm-37.204-74.806c-.17-2.497-.284-4.995-.284-7.521 0-2.525.113-5.022.284-7.492h15.353c4.143 0 7.52 3.349 7.52 7.492s-3.377 7.521-7.52 7.521zm26.562-79.203c3.292-3.774 6.839-7.321 10.642-10.613l10.869 10.869c2.923 2.922 2.923 7.69 0 10.613-2.951 2.923-7.69 2.923-10.614 0z" fill="#f2d068"/><path d="m295.502 255.705c6.811-5.817 10.755-14.273 10.755-23.242 0-8.457-3.491-16.147-9.109-21.737-3.888-3.86-8.797-6.697-14.274-8.088v-10.188c0-4.143-3.377-7.52-7.521-7.52-4.143 0-7.52 3.377-7.52 7.52v9.251h-14.671v-9.251c0-4.143-3.349-7.52-7.521-7.52-4.143 0-7.492 3.377-7.492 7.52v9.251h-24.888c-4.143 0-7.52 3.377-7.52 7.52s3.377 7.521 7.52 7.521h7.322v77.955h-7.322c-4.143 0-7.52 3.348-7.52 7.52 0 4.143 3.377 7.492 7.52 7.492h24.888v9.251c0 4.172 3.349 7.521 7.492 7.521 4.172 0 7.521-3.349 7.521-7.521v-9.251h14.671v9.251c0 4.172 3.377 7.521 7.52 7.521 4.144 0 7.521-3.349 7.521-7.521v-10.188c5.477-1.362 10.386-4.229 14.274-8.088 5.619-5.59 9.109-13.281 9.109-21.737.001-8.967-3.944-17.395-10.755-23.242zm-59.878 7.52h39.729c4.399 0 8.372 1.76 11.238 4.626 2.866 2.837 4.654 6.782 4.654 11.096 0 4.342-1.788 8.287-4.654 11.124-2.866 2.866-6.839 4.626-11.238 4.626h-39.729zm0-15.012v-31.471h39.729c4.399 0 8.372 1.759 11.238 4.626 2.866 2.837 4.654 6.782 4.654 11.095 0 4.342-1.788 8.258-4.654 11.125-2.866 2.837-6.839 4.625-11.238 4.625z" fill="#fbc848"/></g></svg>